<svg xmlns="http://www.w3.org/2000/svg" viewBox="0 0 512 512" fill="currentColor">
  <path d="M256 16C123.45 16 16 123.45 16 256s107.45 240 240 240 240-107.45 240-240S388.55 16 256 16zm0 48c105.87 0 192 86.13 192 192s-86.13 192-192 192-192-86.13-192-192S150.13 64 256 64zm0 48c-79.53 0-144 64.47-144 144s64.47 144 144 144 144-64.47 144-144-64.47-144-144-144zm0 32c61.86 0 112 50.14 112 112s-50.14 112-112 112-112-50.14-112-112 50.14-112 112-112z"/>
  <path d="M256 176c-44.18 0-80 35.82-80 80s35.82 80 80 80 80-35.82 80-80-35.82-80-80-80z"/>
</svg>
