<svg xmlns="http://www.w3.org/2000/svg" viewBox="0 0 512 512" fill="currentColor">
  <path d="M503.39 198.16c-8.71-16.27-20.99-30.35-36.18-41.76-4.56-3.45-9.39-6.46-14.32-9.25-1.58-5.67-4.51-11.02-8.79-15.48-8.27-8.63-20.34-13.97-33.92-14.95-13.12-.95-26.09 2.34-36.29 9.16-5.99-4.34-12.66-7.65-19.87-9.68-6.78-5.78-14.52-10.56-22.9-14.15-8.94-3.82-18.43-6.07-28.18-6.63-19.52-1.12-37.68 4.93-51.47 16.2-10.62-3.72-21.97-5.22-33.35-4.22-15.6 1.39-30.04 7.47-41.68 17.04-10.53-6.16-22.48-9.55-34.95-9.55-12.78 0-24.99 3.57-35.72 10.05-11.15-4.34-23.2-6.14-35.57-4.82-15.17 1.63-29.06 8.39-39.78 18.63-10.7-6.69-23.2-10.55-36.54-10.55-13.64 0-26.39 4.06-37.23 11.02-11.4-5.23-24.18-7.8-37.52-6.63-15.82 1.38-30.28 8.43-41.09 19.24C4.52 127.6.39 144.85.39 163.23c0 10.24 2.18 19.98 6.08 28.8-6.36 12.06-9.62 25.59-9.18 39.66.59 18.82 8.29 35.85 21.06 48.2-1.61 7.5-2.45 15.29-2.45 23.27 0 18.11 4.95 34.86 13.51 48.69 2.59 12.76 9.19 24.45 18.75 33.55 2.54 15.06 10.06 28.73 21.12 39.22 1.7 16.58 8.67 31.79 19.38 43.68 1.47 19.79 10.71 37.93 25.14 51.05 5.66 18.66 17.05 35.25 32.34 47.45 5.96 17.46 16.61 33.07 30.59 45.23 6.54 12.89 15.47 24.35 26.26 33.55 8.64 11.29 19.35 20.71 31.54 27.4 10.54 7.29 22.37 12.42 35.11 14.74 13.2 5.77 27.72 8.99 42.98 8.99 10.29 0 20.21-1.53 29.6-4.35 14.09 4.64 29.14 7.18 44.82 7.18 12.39 0 24.36-1.59 35.65-4.56 11.97-2.21 23.14-6.81 33.03-13.3 14.52-3.52 27.74-10.07 38.97-19.01 10.59-4.36 19.97-10.86 27.58-18.94 12.09-6.47 22.16-15.64 29.25-26.67 9.42-6.63 17.12-15.25 22.47-25.23 8.55-7.52 14.86-17.38 17.86-28.51 7.55-9.32 12.23-20.91 12.71-33.37 6.17-9.9 9.77-21.55 9.77-34.01 0-8.63-1.72-16.83-4.83-24.3 4.03-10.43 6.3-21.78 6.3-33.66 0-15.64-3.89-30.2-10.73-42.88 3.45-11.02 5.38-22.73 5.38-34.9 0-5.38-.39-10.67-1.13-15.82 6.23-10.19 9.8-21.89 9.8-34.39 0-8.46-1.67-16.52-4.68-23.93 3.4-10.37 5.3-21.42 5.3-32.95 0-11.13-1.77-21.82-5.03-31.75z"/>
</svg>
