<svg xmlns="http://www.w3.org/2000/svg" viewBox="0 0 384 512" fill="currentColor">
  <path d="M318.7 268.7c-.2-36.7 16.4-64.4 50-84.8-18.8-26.9-47.2-41.7-84.7-44.6-35.5-2.8-74.3 20.7-88.5 20.7-15 0-49.4-19.7-76.4-19.7C63.3 141.2 4 184.8 4 273.5q0 39.3 14.4 81.2c12.8 36.7 69 126.7 112.5 126.7 31.2 0 45.3-21 75.4-21 33.5 0 48.1 21 78.9 21 34.2 0 74.5-95.9 88.5-120.8-45.9-20.6-54.6-56.3-54-91.9zM247.9 102c17.3-22.3 28.8-53.2 25.6-82.9-22.7 1-52.7 15.2-69.9 35.7-17.3 20.5-29.1 52-25.6 82.9 24.6 1.7 53.1-11.7 69.9-35.7z"/>
</svg>
