<svg xmlns="http://www.w3.org/2000/svg" viewBox="0 0 512 512" fill="currentColor">
  <circle cx="258" cy="26" r="26"/>
  <circle cx="138" cy="76" r="26"/>
  <circle cx="56" cy="166" r="26"/>
  <circle cx="39" cy="271" r="26"/>
  <circle cx="68" cy="371" r="26"/>
  <circle cx="150" cy="451" r="26"/>
  <circle cx="260" cy="486" r="26"/>
  <circle cx="370" cy="451" r="26"/>
  <circle cx="451" cy="371" r="26"/>
  <circle cx="480" cy="271" r="26"/>
  <circle cx="462" cy="166" r="26"/>
  <circle cx="378" cy="76" r="26"/>
  <path d="M258 26c0 14 11 26 26 26s26-12 26-26-11-26-26-26-26 12-26 26zm-120 50c0 14 11 26 26 26s26-12 26-26-11-26-26-26-26 12-26 26zm-82 90c0 14 11 26 26 26s26-12 26-26-11-26-26-26-26 12-26 26zm-17 105c0 14 11 26 26 26s26-12 26-26-11-26-26-26-26 12-26 26zm29 100c0 14 11 26 26 26s26-12 26-26-11-26-26-26-26 12-26 26zm82 80c0 14 11 26 26 26s26-12 26-26-11-26-26-26-26 12-26 26zm110 35c0 14 11 26 26 26s26-12 26-26-11-26-26-26-26 12-26 26zm110-35c0 14 11 26 26 26s26-12 26-26-11-26-26-26-26 12-26 26zm81-80c0 14 11 26 26 26s26-12 26-26-11-26-26-26-26 12-26 26zm29-100c0 14 11 26 26 26s26-12 26-26-11-26-26-26-26 12-26 26zm-18-105c0 14 11 26 26 26s26-12 26-26-11-26-26-26-26 12-26 26zm-84-90c0 14 11 26 26 26s26-12 26-26-11-26-26-26-26 12-26 26zm-120-50c0 14 11 26 26 26s26-12 26-26-11-26-26-26-26 12-26 26z" transform="translate(0,0)"/>
</svg>
